<svg width="64" height="64" viewBox="0 0 64 64" fill="none" xmlns="http://www.w3.org/2000/svg">
<path d="M61.5 32C61.5 48.2924 48.2924 61.5 32 61.5C15.7076 61.5 2.5 48.2924 2.5 32C2.5 15.7076 15.7076 2.5 32 2.5C48.2924 2.5 61.5 15.7076 61.5 32Z" fill="#F2CC8F" stroke="#3D405B" stroke-width="5"/>
<path d="M27.8767 29.4C27.8767 28.7194 28.1436 28.0661 28.6199 27.58L28.646 27.5539L38.4219 17.7779C35.5329 16.4706 32.3139 16.0747 29.1942 16.6432C26.0743 17.2117 23.202 18.7173 20.9596 20.9597C18.7172 23.2021 17.2116 26.0744 16.6431 29.1942C16.0747 32.3139 16.4705 35.533 17.778 38.4219L7.7 48.5L15.5 56.3L25.578 46.2219C28.467 47.5294 31.686 47.9253 34.8057 47.3568C37.9255 46.7883 40.7979 45.2827 43.0403 43.0403C45.2827 40.7979 46.7883 37.9256 47.3567 34.8058C47.9252 31.6861 47.5294 28.467 46.222 25.5779L36.4199 35.38C35.9339 35.8563 35.2804 36.1232 34.5999 36.1232C33.9195 36.1232 33.266 35.8563 32.7799 35.38L28.6199 31.22C28.1436 30.7339 27.8767 30.0805 27.8767 29.4Z" fill="#F4F1DE" stroke="#3D405B" stroke-width="5" stroke-linecap="round" stroke-linejoin="round"/>
</svg>
